<svg width="162" height="46" viewBox="0 0 162 46" fill="none" xmlns="http://www.w3.org/2000/svg">
<g clip-path="url(#clip0_60_7)">
<rect width="40.8889" height="40.8889" transform="translate(0 2.55556)" fill="white"/>
<path d="M17 33H13V13H25V17H17V21H25V25H17V33ZM29 21H25V17H29V21ZM29 33H25V25H29V33Z" fill="black"/>
</g>
<path d="M51.8889 17V13H59.8889V17H51.8889ZM51.8889 33H47.8889V17H51.8889V21H59.8889V17H63.8889V33H59.8889V25H51.8889V33ZM77.4889 29V13H81.4889V29H77.4889ZM69.4889 29V25H73.4889V29H69.4889ZM73.4889 29H77.4889V33H73.4889V29ZM103.089 29V33H87.0889V13H103.089V17H91.0889V21H99.0889V25H91.0889V29H103.089ZM124.689 29V33H108.689V13H124.689V17H112.689V21H120.689V25H112.689V29H124.689ZM134.289 25H130.289V13H134.289V25ZM138.289 25V13H142.289V25H138.289ZM138.289 33H134.289V25H138.289V33Z" fill="white"/>
<defs>
<clipPath id="clip0_60_7">
<rect width="40.8889" height="40.8889" fill="white" transform="translate(0 2.55556)"/>
</clipPath>
</defs>
</svg>
