<svg viewBox="0 0 167 60" fill="none" xmlns="http://www.w3.org/2000/svg">
<g filter="url(#filter0_d_30_1106)">
<path d="M27.2955 18.84C28.2555 20.3333 28.9888 22 29.4955 23.84C30.0288 25.6533 30.2955 27.4933 30.2955 29.36C30.2955 31.1467 29.8421 32.7733 28.9355 34.24C28.0555 35.7067 26.9355 36.7867 25.5755 37.48L35.0155 43.04L33.1355 45.44L19.0155 37.12C17.2821 36.2667 15.7621 35.16 14.4555 33.8C13.1488 32.4133 12.4955 31.1467 12.4955 30C12.4955 28.9867 12.9221 28.2267 13.7755 27.72C14.6555 27.1867 15.8555 26.92 17.3755 26.92C18.8688 26.92 20.5488 27.16 22.4155 27.64C22.5221 27.08 22.5755 26.4 22.5755 25.6C22.5755 23.3333 22.1355 21.08 21.2555 18.84H10.6555L4.33547 15.36V12.56H31.6555L37.9755 16L38.0155 18.84H27.2955ZM45.5658 18.84V44.4H42.7258L36.2858 40.72L38.1658 38.36V18.84H37.0458L30.8458 15.36V12.56H46.5658L52.8058 16V18.84H45.5658ZM83.3073 18.84V44.4H80.4673L74.0273 40.72L75.9073 38.36V33.2H68.8673L71.1873 35.12C71.374 35.84 71.4673 36.6 71.4673 37.4C71.4673 38.6267 71.0807 39.7733 70.3073 40.84C69.534 41.9067 68.4673 42.7733 67.1073 43.44C65.774 44.08 64.2673 44.4 62.5873 44.4C60.614 44.4 58.934 44.1733 57.5473 43.72L51.5473 38.96L52.7473 36.44C54.5873 37.4 56.094 38.08 57.2673 38.48C58.4407 38.8533 59.454 39.04 60.3073 39.04C61.2673 39.04 62.0273 38.7467 62.5873 38.16C63.174 37.5467 63.4673 36.8133 63.4673 35.96C63.4673 34.9467 63.2273 33.96 62.7473 33C62.2673 32.04 61.5607 31.1733 60.6273 30.4L59.3473 29.32L61.1873 26.96V26.92H75.9073V18.84H50.5073L44.2273 15.36V12.56H84.3073L90.5473 16V18.84H83.3073ZM99.4095 18.84V44.4H96.5695L90.1295 40.72L92.0095 38.36V18.84H90.8895L85.1695 15.64H82.2095C79.4095 13.88 77.3029 12.0533 75.8895 10.16C74.4762 8.24 73.7695 6.49333 73.7695 4.92C73.7695 3.66666 74.2229 2.65333 75.1295 1.88C76.0362 1.10666 77.2895 0.719999 78.8895 0.719999C82.1962 0.719999 85.1829 1.66667 87.8495 3.56C90.5162 5.45333 93.0495 8.45333 95.4495 12.56H100.41L106.65 16V18.84H99.4095ZM91.7295 12.56C90.4762 10.7733 89.1562 9.4 87.7695 8.44C86.3562 7.48 84.9829 7 83.6495 7C82.9295 7 82.3962 7.18666 82.0495 7.56C81.6762 7.90666 81.4895 8.38666 81.4895 9C81.4895 9.8 81.7829 10.72 82.3695 11.76C82.9295 12.7733 83.7029 13.76 84.6895 14.72V12.56H91.7295ZM137.791 18.8H130.551V44.36H127.711L121.271 40.68L123.151 38.36C122.191 38.68 121.084 38.84 119.831 38.84C117.911 38.84 115.898 38.4 113.791 37.52C111.711 36.64 109.978 35.4533 108.591 33.96C107.204 32.44 106.511 30.8133 106.511 29.08C106.511 27.2667 107.138 25.7067 108.391 24.4C109.644 23.0667 111.311 22.2 113.391 21.8L119.351 25.24V28.08C118.711 27.9467 118.031 27.88 117.311 27.88C116.218 27.88 115.364 28.2533 114.751 29C114.164 29.72 113.871 30.72 113.871 32C113.871 32.8533 114.098 33.5333 114.551 34.04C115.004 34.52 115.631 34.76 116.431 34.76C117.471 34.76 118.391 34.4 119.191 33.68C120.018 32.9333 121.031 31.76 122.231 30.16L123.191 28.92V18.84H104.311L98.0711 15.36V12.56H131.591L137.791 15.96V18.8ZM162.583 52H158.783V4.56H162.583V52Z" fill="url(#paint0_linear_30_1106)"/>
</g>
<defs>
<filter id="filter0_d_30_1106" x="0.335449" y="0.720001"  filterUnits="userSpaceOnUse" color-interpolation-filters="sRGB">
<feFlood flood-opacity="0" result="BackgroundImageFix"/>
<feColorMatrix in="SourceAlpha" type="matrix" values="0 0 0 0 0 0 0 0 0 0 0 0 0 0 0 0 0 0 127 0" result="hardAlpha"/>
<feOffset dy="4"/>
<feGaussianBlur stdDeviation="2"/>
<feComposite in2="hardAlpha" operator="out"/>
<feColorMatrix type="matrix" values="0 0 0 0 0 0 0 0 0 0 0 0 0 0 0 0 0 0 0.25 0"/>
<feBlend mode="normal" in2="BackgroundImageFix" result="effect1_dropShadow_30_1106"/>
<feBlend mode="normal" in="SourceGraphic" in2="effect1_dropShadow_30_1106" result="shape"/>
</filter>
<linearGradient id="paint0_linear_30_1106" x1="-48.7037" y1="20.5113" x2="253.502" y2="21.5516" gradientUnits="userSpaceOnUse">
<stop offset="0.0458438" stop-color="#16A34A"/>
<stop offset="1" stop-color="#818CF8"/>
</linearGradient>
</defs>
</svg>
