<svg viewBox="0 0 167 60" fill="none" xmlns="http://www.w3.org/2000/svg"><g filter="url(#prefix__filter0_d_30_1106)"><path d="M27.296 18.84c.96 1.493 1.693 3.16 2.2 5 .533 1.813.8 3.653.8 5.52 0 1.787-.454 3.413-1.36 4.88-.88 1.467-2 2.547-3.36 3.24l9.44 5.56-1.88 2.4-14.12-8.32a16.171 16.171 0 01-4.56-3.32c-1.307-1.387-1.96-2.653-1.96-3.8 0-1.013.426-1.773 1.28-2.28.88-.533 2.08-.8 3.6-.8 1.493 0 3.173.24 5.04.72.106-.56.16-1.24.16-2.04 0-2.267-.44-4.52-1.32-6.76h-10.6l-6.32-3.48v-2.8h27.32l6.32 3.44.04 2.84h-10.72zm18.27 0V44.4h-2.84l-6.44-3.68 1.88-2.36V18.84h-1.12l-6.2-3.48v-2.8h15.72l6.24 3.44v2.84h-7.24zm37.741 0V44.4h-2.84l-6.44-3.68 1.88-2.36V33.2h-7.04l2.32 1.92c.187.72.28 1.48.28 2.28 0 1.227-.386 2.373-1.16 3.44-.773 1.067-1.84 1.933-3.2 2.6-1.333.64-2.84.96-4.52.96-1.973 0-3.653-.227-5.04-.68l-6-4.76 1.2-2.52c1.84.96 3.347 1.64 4.52 2.04 1.174.373 2.187.56 3.04.56.96 0 1.72-.293 2.28-.88.587-.613.88-1.347.88-2.2 0-1.013-.24-2-.72-2.96s-1.186-1.827-2.12-2.6l-1.28-1.08 1.84-2.36v-.04h14.72v-8.08h-25.4l-6.28-3.48v-2.8h40.08l6.24 3.44v2.84h-7.24zm16.102 0V44.4h-2.84l-6.44-3.68 1.88-2.36V18.84h-1.12l-5.72-3.2h-2.96c-2.8-1.76-4.906-3.587-6.32-5.48-1.413-1.92-2.12-3.667-2.12-5.24 0-1.253.454-2.267 1.36-3.04.907-.773 2.16-1.16 3.76-1.16 3.307 0 6.294.947 8.96 2.84 2.667 1.893 5.2 4.893 7.6 9h4.961l6.24 3.44v2.84h-7.24zm-7.68-6.28c-1.253-1.787-2.573-3.16-3.96-4.12C86.356 7.48 84.983 7 83.65 7c-.72 0-1.253.187-1.6.56-.373.347-.56.827-.56 1.44 0 .8.294 1.72.88 2.76.56 1.013 1.334 2 2.32 2.96v-2.16h7.04zm46.062 6.24h-7.24v25.56h-2.84l-6.44-3.68 1.88-2.32c-.96.32-2.067.48-3.32.48-1.92 0-3.933-.44-6.04-1.32-2.08-.88-3.813-2.067-5.2-3.56-1.387-1.52-2.08-3.147-2.08-4.88 0-1.813.627-3.373 1.88-4.68 1.253-1.333 2.92-2.2 5-2.6l5.96 3.44v2.84a9.99 9.99 0 00-2.04-.2c-1.093 0-1.947.373-2.56 1.12-.587.72-.88 1.72-.88 3 0 .853.227 1.533.68 2.04.453.48 1.08.72 1.88.72 1.04 0 1.96-.36 2.76-1.08.827-.747 1.84-1.92 3.04-3.52l.96-1.24V18.84h-18.88l-6.24-3.48v-2.8h33.52l6.2 3.4v2.84zM162.583 52h-3.8V4.56h3.8V52z" fill="url(#prefix__paint0_linear_30_1106)"/></g><defs><linearGradient id="prefix__paint0_linear_30_1106" x1="-48.704" y1="20.511" x2="253.502" y2="21.552" gradientUnits="userSpaceOnUse"><stop offset=".046" stop-color="#16A34A"/><stop offset="1" stop-color="#818CF8"/></linearGradient><filter id="prefix__filter0_d_30_1106" x=".335" y=".72" filterUnits="userSpaceOnUse" color-interpolation-filters="sRGB"><feFlood flood-opacity="0" result="BackgroundImageFix"/><feColorMatrix in="SourceAlpha" values="0 0 0 0 0 0 0 0 0 0 0 0 0 0 0 0 0 0 127 0" result="hardAlpha"/><feOffset dy="4"/><feGaussianBlur stdDeviation="2"/><feComposite in2="hardAlpha" operator="out"/><feColorMatrix values="0 0 0 0 0 0 0 0 0 0 0 0 0 0 0 0 0 0 0.25 0"/><feBlend in2="BackgroundImageFix" result="effect1_dropShadow_30_1106"/><feBlend in="SourceGraphic" in2="effect1_dropShadow_30_1106" result="shape"/></filter></defs></svg>