<svg width="510" height="173" viewBox="0 0 510 173" fill="none" xmlns="http://www.w3.org/2000/svg">
<g filter="url(#filter0_d_30_1106)">
<path d="M81.9955 60.024C84.9822 64.8027 87.2862 70.1787 88.9075 76.152C90.6142 82.04 91.4675 88.0133 91.4675 94.072C91.4675 99.6187 90.1022 104.739 87.3715 109.432C84.6408 114.04 81.0995 117.539 76.7475 119.928L106.316 135.672L99.9155 143.992L52.6835 118.904C46.9662 116.088 41.9742 112.461 37.7075 108.024C33.4408 103.501 31.3075 99.32 31.3075 95.48C31.3075 92.0667 32.8008 89.464 35.7875 87.672C38.8595 85.88 43.0408 84.984 48.3315 84.984C53.2808 84.984 58.8275 85.752 64.9715 87.288C65.2275 85.3253 65.3555 83.2773 65.3555 81.144C65.3555 74.232 64.0328 67.2347 61.3875 60.152H27.0835L4.4275 48.376V38.392H95.3075L117.964 50.168V60.024H81.9955ZM141.407 60.152V140.28H131.423L109.407 128.76L115.807 120.44V60.152H113.503L91.1025 48.376V38.392H142.815L165.215 50.168V60.152H141.407ZM264.207 60.152V140.28H254.223L232.207 128.76L238.607 120.44V106.744H220.303L223.631 109.432C224.228 111.736 224.527 114.168 224.527 116.728C224.527 120.824 223.247 124.707 220.687 128.376C218.127 131.96 214.585 134.861 210.063 137.08C205.625 139.213 200.633 140.28 195.087 140.28C188.431 140.28 182.756 139.469 178.063 137.848L160.527 123.768L164.367 115.064C174.607 119.501 182.244 121.72 187.279 121.72C190.18 121.72 192.484 120.781 194.191 118.904C195.983 117.027 196.879 114.808 196.879 112.248C196.879 108.749 196.111 105.464 194.575 102.392C193.039 99.2347 190.82 96.4613 187.919 94.072L187.023 93.304L193.423 84.984H238.607V60.152H157.199L134.543 48.376V38.392H265.615L288.015 50.168V60.152H264.207ZM316.582 60.152V140.28H306.598L284.582 128.76L290.982 120.44V60.152H288.678L267.941 49.272H259.365C249.979 43.4693 242.896 37.4107 238.117 31.096C233.253 24.7813 230.821 18.9787 230.821 13.688C230.821 9.67733 232.272 6.43466 235.173 3.95999C238.075 1.48532 242.085 0.247986 247.205 0.247986C258.555 0.247986 268.709 3.31999 277.669 9.46399C286.63 15.608 294.992 25.2507 302.758 38.392H317.99L340.39 50.168V60.152H316.582ZM289.958 38.392C286.203 33.1867 282.107 29.176 277.669 26.36C273.232 23.4587 268.923 22.008 264.741 22.008C262.437 22.008 260.731 22.5627 259.622 23.672C258.427 24.7813 257.829 26.3173 257.829 28.28C257.829 30.584 258.597 33.1867 260.133 36.088C261.584 38.904 263.632 41.72 266.277 44.536V38.392H289.958ZM442.71 60.28H418.902V140.408H408.918L386.902 128.888L391.638 122.744C389.078 123.256 386.219 123.512 383.062 123.512C376.662 123.512 369.963 122.104 362.966 119.288C356.054 116.387 350.251 112.547 345.558 107.768C340.95 102.904 338.646 97.656 338.646 92.024C338.646 86.2213 340.566 81.1867 344.406 76.92C348.246 72.568 353.408 69.5813 359.894 67.96L381.27 79.736V89.72C378.539 89.208 376.192 88.952 374.23 88.952C370.987 88.952 368.427 90.104 366.55 92.408C364.672 94.712 363.734 97.912 363.734 102.008C363.734 104.397 364.416 106.317 365.782 107.768C367.232 109.133 369.152 109.816 371.542 109.816C374.699 109.816 377.515 108.707 379.99 106.488C382.55 104.269 385.75 100.643 389.59 95.608L393.302 90.872V60.152H332.246L309.718 48.376V38.392H420.31L442.71 50.296V60.28ZM505.215 164.6H493.055V12.792H505.215V164.6Z" fill="url(#paint0_linear_30_1106)"/>
</g>
<defs>
<filter id="filter0_d_30_1106" x="0.42749" y="0.247986" width="508.787" height="172.352" filterUnits="userSpaceOnUse" color-interpolation-filters="sRGB">
<feFlood flood-opacity="0" result="BackgroundImageFix"/>
<feColorMatrix in="SourceAlpha" type="matrix" values="0 0 0 0 0 0 0 0 0 0 0 0 0 0 0 0 0 0 127 0" result="hardAlpha"/>
<feOffset dy="4"/>
<feGaussianBlur stdDeviation="2"/>
<feComposite in2="hardAlpha" operator="out"/>
<feColorMatrix type="matrix" values="0 0 0 0 0 0 0 0 0 0 0 0 0 0 0 0 0 0 0.25 0"/>
<feBlend mode="normal" in2="BackgroundImageFix" result="effect1_dropShadow_30_1106"/>
<feBlend mode="normal" in="SourceGraphic" in2="effect1_dropShadow_30_1106" result="shape"/>
</filter>
<linearGradient id="paint0_linear_30_1106" x1="-74.6296" y1="66.0226" x2="634.008" y2="68.6245" gradientUnits="userSpaceOnUse">
<stop offset="0.0458438" stop-color="#16A34A"/>
<stop offset="1" stop-color="#818CF8"/>
</linearGradient>
</defs>
</svg>
